HIERARCHY
ROOT hip
{
	OFFSET 0.000000 0.000000 0.000000 
	CHANNELS 6 Xposition Yposition Zposition Xrotation Zrotation Yrotation
	JOINT abdomen
	{
		OFFSET 0.000000 3.402643 0.000000 
		CHANNELS 3 Xrotation Zrotation Yrotation
		JOINT chest
		{
			OFFSET 0.000000 8.438565 -0.680529 
			CHANNELS 3 Xrotation Zrotation Yrotation
			JOINT neck
			{
				OFFSET 0.000000 10.207942 -0.272212 
				CHANNELS 3 Xrotation Zrotation Yrotation
				JOINT head
				{
					OFFSET 0.000000 3.130431 0.000000 
					CHANNELS 3 Xrotation Zrotation Yrotation
					End Site
					{
						OFFSET 0.000000 3.130435 0.000000 
					}
				}
			}
			JOINT lCollar
			{
				OFFSET 3.470700 6.669187 -0.816635 
				CHANNELS 3 Zrotation Yrotation Xrotation
				JOINT lShldr
				{
					OFFSET 3.198488 0.000000 0.000000 
					CHANNELS 3 Zrotation Yrotation Xrotation
					JOINT lForeArm
					{
						OFFSET 10.139888 0.000000 0.000000 
						CHANNELS 3 Yrotation Zrotation Xrotation
						JOINT lHand
						{
							OFFSET 8.370511 0.000000 0.000000 
							CHANNELS 3 Zrotation Yrotation Xrotation
							End Site
							{
								OFFSET 4.083176 0.000000 0.000000 
							}
						}
					}
				}
			}
			JOINT rCollar
			{
				OFFSET -3.470700 6.669187 -0.816635 
				CHANNELS 3 Zrotation Yrotation Xrotation
				JOINT rShldr
				{
					OFFSET -3.198488 0.000000 0.000000 
					CHANNELS 3 Zrotation Yrotation Xrotation
					JOINT rForeArm
					{
						OFFSET -10.139888 0.000000 0.000000 
						CHANNELS 3 Yrotation Zrotation Xrotation
						JOINT rHand
						{
							OFFSET -8.370511 0.000000 0.000000 
							CHANNELS 3 Zrotation Yrotation Xrotation
							End Site
							{
								OFFSET -4.083176 0.000000 0.000000 
							}
						}
					}
				}
			}
		}
	}
	JOINT lThigh
	{
		OFFSET 5.308129 -1.633274 1.361059 
		CHANNELS 3 Xrotation Zrotation Yrotation
		JOINT lShin
		{
			OFFSET -2.041588 -20.007561 0.000000 
			CHANNELS 3 Xrotation Zrotation Yrotation
			JOINT lFoot
			{
				OFFSET 0.000000 -19.190928 -1.224953 
				CHANNELS 3 Xrotation Yrotation Zrotation
				End Site
				{
					OFFSET 0.000000 -2.449906 4.627600 
				}
			}
		}
	}
	JOINT rThigh
	{
		OFFSET -5.308129 -1.633274 1.361059 
		CHANNELS 3 Xrotation Zrotation Yrotation
		JOINT rShin
		{
			OFFSET 2.041588 -20.007561 0.000000 
			CHANNELS 3 Xrotation Zrotation Yrotation
			JOINT rFoot
			{
				OFFSET 0.000000 -19.190928 -1.224953 
				CHANNELS 3 Xrotation Yrotation Zrotation
				End Site
				{
					OFFSET 0.000000 -2.449906 4.627600 
				}
			}
		}
	}
}
MOTION
Frames: 9
Frame Time: 0.016667
3.400204 19.661915 -12.731007 -18.156277 -26.498894 -4.584902 59.466183 26.714344 15.080772 5.668914 0.517555 1.962957 -4.677724 1.552791 -0.116164 -1.078043 -7.765384 23.015472 -7.442690 -20.429148 2.241247 -47.319805 -25.135437 2.125446 -88.289215 1.923726 -0.079054 -50.476810 30.000000 11.937922 8.186818 22.151398 2.689204 56.288689 12.096924 2.207692 52.826805 5.000000 11.039028 6.489193 -17.872643 20.744982 -98.641563 22.470404 -16.705080 144.983536 8.889552 -3.845790 -38.583473 8.231480 3.231684 -17.095835 -4.583691 -39.986099 144.988907 -8.578417 3.108530 -78.714096 -7.165075 -14.638979 
3.400204 19.661915 -12.730889 -18.156277 -26.498894 -4.584902 59.498199 26.716215 15.107335 5.668914 0.517555 1.962957 -4.687509 1.562447 -0.117889 -1.081172 -7.791786 23.026449 -7.455752 -20.408133 2.250853 -47.338531 -25.160406 2.150680 -88.338089 2.001591 -0.085661 -50.338150 30.000000 12.062479 8.168132 22.170746 2.699956 56.327759 12.057337 2.178707 52.872429 5.000000 11.019467 6.428495 -17.874279 20.816227 -98.651199 22.470444 -16.698627 144.983704 8.884393 -3.825096 -38.536667 8.250025 3.291596 -17.097435 -4.576234 -39.996853 144.979385 -8.583790 3.114027 -78.731613 -7.137557 -14.656735 
3.400313 19.665462 -12.730889 -18.132717 -26.489510 -4.576167 59.510796 26.737585 15.113012 5.668823 0.507790 1.982487 -4.716806 1.562447 -0.117889 -1.063553 -7.784481 22.996151 -7.466621 -20.417431 2.254943 -47.324917 -25.186468 2.163463 -88.367378 2.069792 -0.090120 -50.204689 30.000000 12.048718 8.148556 22.160877 2.691075 56.357162 12.037407 2.159428 52.903130 5.000000 10.980977 6.432650 -17.885654 20.901495 -98.647743 22.441071 -16.648451 144.992462 8.884136 -3.857599 -38.582985 8.327344 3.348655 -17.095839 -4.583682 -39.986099 144.987976 -8.578258 3.135644 -78.736382 -7.137595 -14.717583 
3.400421 19.669003 -12.730889 -18.109150 -26.480124 -4.563076 59.507259 26.758995 15.106109 5.668823 0.507790 1.992253 -4.736357 1.572103 -0.119350 -1.041356 -7.785602 22.976828 -7.467094 -20.427114 2.256131 -47.314907 -25.205353 2.181997 -88.396675 2.118481 -0.093786 -50.072334 30.000000 12.029364 8.119367 22.160698 2.682694 56.387085 12.027274 2.122677 52.922127 5.000000 10.950658 6.439918 -17.895987 20.974525 -98.667633 22.421682 -16.632565 144.992325 8.888571 -3.872912 -38.600098 8.347159 3.355583 -17.117014 -4.605750 -39.994820 144.989090 -8.583837 3.119060 -78.725937 -7.132433 -14.720921 
3.399477 19.671833 -12.729939 -18.090485 -26.470387 -4.563075 59.530418 26.764614 15.114517 5.668823 0.507790 1.992253 -4.746367 1.560986 -0.127541 -1.036176 -7.777169 22.967173 -7.484286 -20.427618 2.252866 -47.308258 -25.210896 2.198723 -88.425659 2.177947 -0.074288 -50.007675 30.000000 11.939646 8.119303 22.170462 2.682736 56.387138 12.007780 2.103106 52.953857 5.000000 10.937569 6.456577 -17.903076 21.016851 -98.667419 22.402075 -16.620903 144.990875 8.883701 -3.903412 -38.612896 8.389705 3.380342 -17.117020 -4.605747 -39.994823 144.989731 -8.593754 3.126819 -78.722610 -7.151445 -14.768192 
3.397479 19.673948 -12.728051 -18.090485 -26.470387 -4.563075 59.543083 26.771488 15.125350 5.668827 0.517556 1.972723 -4.736558 1.541675 -0.124620 -1.068136 -7.776050 22.986492 -7.504611 -20.417170 2.257480 -47.294437 -25.209642 2.217045 -88.463364 2.228677 -0.030109 -50.010380 30.000000 11.768056 8.119172 22.189993 2.682822 56.367779 11.998338 2.083365 52.981350 5.000000 10.966695 6.479043 -17.915789 21.029308 -98.650345 22.392412 -16.652378 144.988708 8.868127 -3.922710 -38.586197 8.399467 3.314604 -17.128880 -4.599864 -39.995960 144.990143 -8.598808 3.134910 -78.702026 -7.161030 -14.779288 
3.395482 19.676065 -12.726165 -18.080721 -26.470388 -4.563076 59.560608 26.781355 15.151405 5.658973 0.517557 1.943427 -4.726751 1.522363 -0.121698 -1.088998 -7.775491 22.996153 -7.538456 -20.395370 2.272863 -47.283966 -25.195053 2.237732 -88.490326 2.279360 0.013284 -50.029881 30.000000 11.585433 8.118978 22.219288 2.682949 56.348442 11.979150 2.053838 53.010620 5.000000 10.990132 6.495065 -17.923903 21.032534 -98.641403 22.372766 -16.656530 144.978775 8.869030 -3.930852 -38.563988 8.424657 3.296193 -17.115923 -4.584082 -39.996021 144.979706 -8.593649 3.130850 -78.757607 -7.142640 -14.821672 
3.393617 19.678173 -12.724056 -18.081537 -26.461344 -4.541250 59.594635 26.807875 15.136901 5.649295 0.517556 1.953192 -4.736476 1.503052 -0.118776 -1.103350 -7.767061 22.985172 -7.527583 -20.386076 2.268766 -47.290344 -25.183311 2.213450 -88.520996 2.249156 -0.006321 -49.964100 30.000000 11.594076 8.119043 22.209524 2.682906 56.338421 11.998774 2.083077 53.016315 5.000000 10.981453 6.504195 -17.935186 21.018124 -98.621979 22.352930 -16.658468 144.982254 8.894666 -3.901320 -38.554230 8.370518 3.249611 -17.098528 -4.597898 -39.995663 144.980347 -8.603564 3.138625 -78.717766 -7.126794 -14.813924 
3.391753 19.680285 -12.721955 -18.092113 -26.452297 -4.519423 59.619900 26.830677 15.125199 5.639440 0.507791 1.943425 -4.746183 1.474085 -0.114394 -1.106610 -7.759186 22.965853 -7.527108 -20.376394 2.267568 -47.296993 -25.177761 2.196721 -88.551384 2.209212 -0.025448 -49.910423 30.000000 11.596745 8.119107 22.199759 2.682864 56.319164 12.018591 2.082927 53.033768 5.000000 10.961877 6.497015 -17.952963 21.016787 -98.578979 22.333632 -16.628426 144.994232 8.913776 -3.890682 -38.581589 8.393562 3.248220 -17.096783 -4.604432 -39.994625 144.982574 -8.621689 3.131689 -78.677185 -7.106355 -14.813148 
